<svg xmlns="http://www.w3.org/2000/svg" xmlns:xlink="http://www.w3.org/1999/xlink" width="500" zoomAndPan="magnify" viewBox="0 0 375 374.999991" height="500" preserveAspectRatio="xMidYMid meet" version="1.0"><defs><filter x="0%" y="0%" width="100%" height="100%" id="b3f4f1b595"><feColorMatrix values="0 0 0 0 1 0 0 0 0 1 0 0 0 0 1 0 0 0 1 0" color-interpolation-filters="sRGB"/></filter><g/><mask id="7528e260b0"><g filter="url(#b3f4f1b595)"><rect x="-37.5" width="450" fill="#000000" y="-37.499999" height="449.999989" fill-opacity="0.6"/></g></mask><clipPath id="f666eb04a4"><path d="M 25 6 L 54 6 L 54 36 L 25 36 Z M 25 6 " clip-rule="nonzero"/></clipPath><clipPath id="494921241e"><path d="M 31.917969 3.9375 L 53.882812 8.8125 L 47.871094 35.902344 L 25.90625 31.027344 Z M 31.917969 3.9375 " clip-rule="nonzero"/></clipPath><clipPath id="9b19b6ca99"><path d="M 14.933594 0.0898438 L 64.722656 11.140625 L 49.128906 81.429688 L -0.660156 70.382812 Z M 14.933594 0.0898438 " clip-rule="nonzero"/></clipPath><clipPath id="04986a051f"><rect x="0" width="65" y="0" height="82"/></clipPath><clipPath id="7ea33196b8"><path d="M 100 154.15625 L 150 154.15625 L 150 226.15625 L 100 226.15625 Z M 100 154.15625 " clip-rule="nonzero"/></clipPath></defs><rect x="-37.5" width="450" fill="#ffffff" y="-37.499999" height="449.999989" fill-opacity="1"/><rect x="-37.5" width="450" fill="#ffffff" y="-37.499999" height="449.999989" fill-opacity="1"/><g fill="#000000" fill-opacity="1"><g transform="translate(42.307173, 218.264047)"><g><path d="M 15.796875 -29.40625 C 19.546875 -29.40625 22.484375 -28.507812 24.609375 -26.71875 C 26.734375 -24.925781 27.796875 -22.457031 27.796875 -19.3125 C 27.796875 -16.175781 26.734375 -13.71875 24.609375 -11.9375 C 22.484375 -10.164062 19.546875 -9.28125 15.796875 -9.28125 L 7.890625 -9.28125 L 7.890625 0 L 4.78125 0 L 4.78125 -29.40625 Z M 15.703125 -12.015625 C 18.617188 -12.015625 20.847656 -12.648438 22.390625 -13.921875 C 23.929688 -15.191406 24.703125 -16.988281 24.703125 -19.3125 C 24.703125 -21.695312 23.929688 -23.523438 22.390625 -24.796875 C 20.847656 -26.078125 18.617188 -26.71875 15.703125 -26.71875 L 7.890625 -26.71875 L 7.890625 -12.015625 Z M 15.703125 -12.015625 "/></g></g></g><g fill="#000000" fill-opacity="1"><g transform="translate(72.463166, 218.264047)"><g><path d="M 24.859375 0 L 18.140625 -9.453125 C 17.390625 -9.367188 16.609375 -9.328125 15.796875 -9.328125 L 7.890625 -9.328125 L 7.890625 0 L 4.78125 0 L 4.78125 -29.40625 L 15.796875 -29.40625 C 19.546875 -29.40625 22.484375 -28.507812 24.609375 -26.71875 C 26.734375 -24.925781 27.796875 -22.457031 27.796875 -19.3125 C 27.796875 -17.019531 27.210938 -15.082031 26.046875 -13.5 C 24.890625 -11.914062 23.234375 -10.773438 21.078125 -10.078125 L 28.265625 0 Z M 15.703125 -11.96875 C 18.617188 -11.96875 20.847656 -12.609375 22.390625 -13.890625 C 23.929688 -15.179688 24.703125 -16.988281 24.703125 -19.3125 C 24.703125 -21.695312 23.929688 -23.523438 22.390625 -24.796875 C 20.847656 -26.078125 18.617188 -26.71875 15.703125 -26.71875 L 7.890625 -26.71875 L 7.890625 -11.96875 Z M 15.703125 -11.96875 "/></g></g></g><g mask="url(#7528e260b0)"><g transform="matrix(1, 0, 0, 1, 90, 142)"><g clip-path="url(#04986a051f)"><g clip-path="url(#f666eb04a4)"><g clip-path="url(#494921241e)"><g clip-path="url(#9b19b6ca99)"><path fill="#da60ff" d="M 54.28125 50.179688 C 54.234375 47.933594 53.90625 45.695312 53.296875 43.527344 C 52.0625 39.207031 49.742188 35.066406 49.738281 30.578125 C 49.742188 28.632812 50.183594 26.699219 50.101562 24.753906 C 50.019531 22.804688 49.261719 20.710938 47.554688 19.785156 C 48.027344 21.304688 48.496094 22.894531 48.207031 24.464844 C 47.933594 26.039062 46.640625 27.546875 45.046875 27.503906 C 43.933594 27.476562 42.980469 26.722656 42.214844 25.917969 C 39.695312 23.285156 38.285156 19.613281 38.382812 15.984375 C 38.484375 12.339844 40.089844 8.765625 42.75 6.261719 C 36.167969 8.261719 30.78125 13.679688 28.628906 20.210938 C 26.472656 26.738281 27.535156 34.21875 31.277344 39.980469 C 32.835938 42.390625 34.886719 44.625 35.46875 47.433594 C 36.371094 51.800781 32.980469 56.394531 28.644531 57.359375 C 24.308594 58.328125 19.585938 55.984375 17.226562 52.207031 C 14.871094 48.429688 14.707031 43.535156 16.222656 39.351562 C 17.742188 35.167969 20.785156 31.660156 24.363281 29.011719 C 17.46875 30.617188 11.390625 35.453125 8.285156 41.816406 C 3.507812 51.605469 6.199219 63.820312 14.484375 70.8125 C 18.042969 73.808594 22.496094 75.785156 27.128906 76.269531 C 35.316406 77.113281 43.773438 73.378906 48.847656 66.894531 C 52.527344 62.1875 54.398438 56.15625 54.28125 50.179688 Z M 54.28125 50.179688 " fill-opacity="1" fill-rule="nonzero"/></g></g></g></g></g></g><path fill="#713584" d="M 108.351562 178.335938 C 108.496094 178.421875 108.769531 178.234375 108.898438 178.164062 C 109.289062 177.976562 109.660156 177.761719 110.007812 177.53125 C 110.4375 177.242188 110.839844 176.910156 111.199219 176.554688 C 111.457031 176.308594 111.703125 176.035156 111.933594 175.761719 C 112.878906 174.597656 113.554688 173.230469 113.972656 171.796875 C 114.433594 170.214844 114.578125 168.503906 114.058594 166.949219 C 113.644531 167.28125 113.195312 167.582031 112.765625 167.898438 C 111.140625 169.105469 109.71875 170.628906 108.839844 172.457031 C 108.066406 174.09375 107.75 175.992188 108.167969 177.773438 C 108.210938 177.890625 108.238281 178.261719 108.351562 178.335938 Z M 108.351562 178.335938 " fill-opacity="1" fill-rule="nonzero"/><g clip-path="url(#7ea33196b8)"><path fill="#713584" d="M 148.328125 194.535156 C 147.796875 192.351562 146.988281 190.238281 145.925781 188.253906 C 143.785156 184.300781 140.621094 180.765625 139.644531 176.378906 C 139.226562 174.484375 139.242188 172.5 138.738281 170.617188 C 138.238281 168.734375 137.042969 166.851562 135.175781 166.320312 C 135.964844 167.699219 136.769531 169.148438 136.828125 170.746094 C 136.898438 172.339844 135.964844 174.09375 134.398438 174.398438 C 133.304688 174.613281 132.214844 174.082031 131.292969 173.460938 C 128.261719 171.4375 126.089844 168.160156 125.402344 164.59375 C 124.710938 161.015625 125.5 157.175781 127.554688 154.15625 C 121.5625 157.535156 117.480469 163.988281 116.789062 170.832031 C 116.101562 177.675781 118.757812 184.746094 123.660156 189.5625 C 125.703125 191.574219 128.1875 193.3125 129.367188 195.929688 C 131.191406 199.996094 128.878906 205.214844 124.855469 207.097656 C 120.828125 208.980469 115.710938 207.714844 112.59375 204.539062 C 109.472656 201.363281 108.253906 196.617188 108.828125 192.207031 C 109.402344 187.792969 111.617188 183.710938 114.535156 180.347656 C 108.152344 183.410156 103.265625 189.445312 101.613281 196.332031 C 99.066406 206.925781 104.34375 218.265625 113.945312 223.296875 C 118.070312 225.453125 122.84375 226.414062 127.46875 225.882812 C 135.648438 224.933594 143.09375 219.457031 146.644531 212.027344 C 149.21875 206.636719 149.734375 200.339844 148.328125 194.535156 Z M 148.328125 194.535156 " fill-opacity="1" fill-rule="nonzero"/></g><g fill="#000000" fill-opacity="1"><g transform="translate(145.153222, 218.264047)"><g><path d="M 35.328125 -29.40625 L 35.328125 0 L 32.34375 0 L 32.34375 -23.515625 L 20.796875 -3.734375 L 19.3125 -3.734375 L 7.765625 -23.390625 L 7.765625 0 L 4.78125 0 L 4.78125 -29.40625 L 7.34375 -29.40625 L 20.125 -7.609375 L 32.765625 -29.40625 Z M 35.328125 -29.40625 "/></g></g></g><g fill="#000000" fill-opacity="1"><g transform="translate(185.263217, 218.264047)"><g><path d="M 25.578125 -2.6875 L 25.578125 0 L 4.78125 0 L 4.78125 -29.40625 L 24.953125 -29.40625 L 24.953125 -26.71875 L 7.890625 -26.71875 L 7.890625 -16.25 L 23.09375 -16.25 L 23.09375 -13.609375 L 7.890625 -13.609375 L 7.890625 -2.6875 Z M 25.578125 -2.6875 "/></g></g></g><g fill="#000000" fill-opacity="1"><g transform="translate(213.361207, 218.264047)"><g><path d="M 10.5 -26.71875 L 0.171875 -26.71875 L 0.171875 -29.40625 L 23.9375 -29.40625 L 23.9375 -26.71875 L 13.609375 -26.71875 L 13.609375 0 L 10.5 0 Z M 10.5 -26.71875 "/></g></g></g><g fill="#000000" fill-opacity="1"><g transform="translate(237.469203, 218.264047)"><g><path d="M 29.359375 -29.40625 L 29.359375 0 L 26.296875 0 L 26.296875 -13.5625 L 7.890625 -13.5625 L 7.890625 0 L 4.78125 0 L 4.78125 -29.40625 L 7.890625 -29.40625 L 7.890625 -16.296875 L 26.296875 -16.296875 L 26.296875 -29.40625 Z M 29.359375 -29.40625 "/></g></g><g transform="translate(271.615201, 218.264047)"><g><path d="M 25.578125 -2.6875 L 25.578125 0 L 4.78125 0 L 4.78125 -29.40625 L 24.953125 -29.40625 L 24.953125 -26.71875 L 7.890625 -26.71875 L 7.890625 -16.25 L 23.09375 -16.25 L 23.09375 -13.609375 L 7.890625 -13.609375 L 7.890625 -2.6875 Z M 25.578125 -2.6875 "/></g></g></g><g fill="#000000" fill-opacity="1"><g transform="translate(299.713191, 218.264047)"><g><path d="M 23.21875 -7.859375 L 6.84375 -7.859375 L 3.3125 0 L 0.078125 0 L 13.53125 -29.40625 L 16.59375 -29.40625 L 30.03125 0 L 26.75 0 Z M 22.09375 -10.375 L 15.03125 -26.171875 L 7.984375 -10.375 Z M 22.09375 -10.375 "/></g></g></g><g fill="#000000" fill-opacity="1"><g transform="translate(300.014154, 239.414713)"><g><path d="M 5.65625 0.109375 C 4.695312 0.109375 3.773438 -0.0390625 2.890625 -0.34375 C 2.015625 -0.65625 1.335938 -1.0625 0.859375 -1.5625 L 1.40625 -2.625 C 1.875 -2.15625 2.492188 -1.773438 3.265625 -1.484375 C 4.035156 -1.191406 4.832031 -1.046875 5.65625 -1.046875 C 6.8125 -1.046875 7.675781 -1.257812 8.25 -1.6875 C 8.832031 -2.113281 9.125 -2.664062 9.125 -3.34375 C 9.125 -3.851562 8.96875 -4.257812 8.65625 -4.5625 C 8.34375 -4.875 7.957031 -5.113281 7.5 -5.28125 C 7.050781 -5.445312 6.421875 -5.628906 5.609375 -5.828125 C 4.628906 -6.066406 3.851562 -6.300781 3.28125 -6.53125 C 2.707031 -6.757812 2.210938 -7.109375 1.796875 -7.578125 C 1.390625 -8.046875 1.1875 -8.679688 1.1875 -9.484375 C 1.1875 -10.128906 1.359375 -10.71875 1.703125 -11.25 C 2.046875 -11.789062 2.570312 -12.21875 3.28125 -12.53125 C 3.988281 -12.851562 4.875 -13.015625 5.9375 -13.015625 C 6.675781 -13.015625 7.394531 -12.910156 8.09375 -12.703125 C 8.800781 -12.503906 9.414062 -12.226562 9.9375 -11.875 L 9.484375 -10.78125 C 8.941406 -11.144531 8.363281 -11.414062 7.75 -11.59375 C 7.132812 -11.769531 6.53125 -11.859375 5.9375 -11.859375 C 4.800781 -11.859375 3.945312 -11.640625 3.375 -11.203125 C 2.8125 -10.765625 2.53125 -10.203125 2.53125 -9.515625 C 2.53125 -8.992188 2.6875 -8.578125 3 -8.265625 C 3.3125 -7.953125 3.703125 -7.710938 4.171875 -7.546875 C 4.648438 -7.378906 5.285156 -7.195312 6.078125 -7 C 7.023438 -6.769531 7.789062 -6.539062 8.375 -6.3125 C 8.957031 -6.082031 9.453125 -5.738281 9.859375 -5.28125 C 10.265625 -4.820312 10.46875 -4.195312 10.46875 -3.40625 C 10.46875 -2.757812 10.289062 -2.164062 9.9375 -1.625 C 9.59375 -1.09375 9.054688 -0.671875 8.328125 -0.359375 C 7.609375 -0.046875 6.71875 0.109375 5.65625 0.109375 Z M 5.65625 0.109375 "/></g></g><g transform="translate(311.354176, 239.414713)"><g><path d="M 1.953125 0.09375 C 1.679688 0.09375 1.453125 -0.00390625 1.265625 -0.203125 C 1.078125 -0.398438 0.984375 -0.640625 0.984375 -0.921875 C 0.984375 -1.203125 1.078125 -1.4375 1.265625 -1.625 C 1.453125 -1.820312 1.679688 -1.921875 1.953125 -1.921875 C 2.222656 -1.921875 2.457031 -1.820312 2.65625 -1.625 C 2.851562 -1.4375 2.953125 -1.203125 2.953125 -0.921875 C 2.953125 -0.640625 2.851562 -0.398438 2.65625 -0.203125 C 2.457031 -0.00390625 2.222656 0.09375 1.953125 0.09375 Z M 1.953125 0.09375 "/></g></g></g><g fill="#000000" fill-opacity="1"><g transform="translate(315.263255, 239.414713)"><g><path d="M 3.078125 -7.796875 C 3.390625 -8.453125 3.847656 -8.941406 4.453125 -9.265625 C 5.054688 -9.597656 5.8125 -9.765625 6.71875 -9.765625 L 6.71875 -8.5 L 6.390625 -8.515625 C 5.378906 -8.515625 4.582031 -8.203125 4 -7.578125 C 3.425781 -6.953125 3.140625 -6.070312 3.140625 -4.9375 L 3.140625 0 L 1.828125 0 L 1.828125 -9.703125 L 3.078125 -9.703125 Z M 3.078125 -7.796875 "/></g></g></g><g fill="#000000" fill-opacity="1"><g transform="translate(322.657317, 239.414713)"><g><path d="M 1.953125 0.09375 C 1.679688 0.09375 1.453125 -0.00390625 1.265625 -0.203125 C 1.078125 -0.398438 0.984375 -0.640625 0.984375 -0.921875 C 0.984375 -1.203125 1.078125 -1.4375 1.265625 -1.625 C 1.453125 -1.820312 1.679688 -1.921875 1.953125 -1.921875 C 2.222656 -1.921875 2.457031 -1.820312 2.65625 -1.625 C 2.851562 -1.4375 2.953125 -1.203125 2.953125 -0.921875 C 2.953125 -0.640625 2.851562 -0.398438 2.65625 -0.203125 C 2.457031 -0.00390625 2.222656 0.09375 1.953125 0.09375 Z M 1.953125 0.09375 "/></g></g></g><g fill="#000000" fill-opacity="1"><g transform="translate(326.566395, 239.414713)"><g><path d="M 1.828125 -13.6875 L 3.140625 -13.6875 L 3.140625 0 L 1.828125 0 Z M 1.828125 -13.6875 "/></g></g></g></svg>