<svg xmlns="http://www.w3.org/2000/svg" xmlns:xlink="http://www.w3.org/1999/xlink" width="500" zoomAndPan="magnify" viewBox="0 0 375 374.999991" height="500" preserveAspectRatio="xMidYMid meet" version="1.0"><defs><filter x="0%" y="0%" width="100%" height="100%" id="fc3acd8e51"><feColorMatrix values="0 0 0 0 1 0 0 0 0 1 0 0 0 0 1 0 0 0 1 0" color-interpolation-filters="sRGB"/></filter><g/><mask id="3b5ca7b7bf"><g filter="url(#fc3acd8e51)"><rect x="-37.5" width="450" fill="#000000" y="-37.499999" height="449.999989" fill-opacity="0.6"/></g></mask><clipPath id="1c39b4c00a"><path d="M 32 7 L 70 7 L 70 48 L 32 48 Z M 32 7 " clip-rule="nonzero"/></clipPath><clipPath id="f4b7a8557f"><path d="M 40.53125 4.851562 L 69.820312 11.351562 L 61.859375 47.226562 L 32.574219 40.730469 Z M 40.53125 4.851562 " clip-rule="nonzero"/></clipPath><clipPath id="5ea9f74167"><path d="M 18.324219 -0.175781 L 82.757812 14.121094 L 62.285156 106.375 L -2.144531 92.078125 Z M 18.324219 -0.175781 " clip-rule="nonzero"/></clipPath><clipPath id="8c1846e63b"><rect x="0" width="83" y="0" height="106"/></clipPath><clipPath id="589bd4de6e"><path d="M 107 124.605469 L 170.648438 124.605469 L 170.648438 219 L 107 219 Z M 107 124.605469 " clip-rule="nonzero"/></clipPath></defs><g mask="url(#3b5ca7b7bf)"><g transform="matrix(1, 0, 0, 1, 94, 109)"><g clip-path="url(#8c1846e63b)"><g clip-path="url(#1c39b4c00a)"><g clip-path="url(#f4b7a8557f)"><g clip-path="url(#5ea9f74167)"><path fill="#a6a6a6" d="M 69.78125 65.332031 C 69.722656 62.390625 69.292969 59.464844 68.496094 56.628906 C 66.882812 50.976562 63.84375 45.566406 63.839844 39.691406 C 63.84375 37.152344 64.425781 34.621094 64.316406 32.074219 C 64.207031 29.53125 63.21875 26.789062 60.984375 25.578125 C 61.601562 27.566406 62.21875 29.644531 61.839844 31.699219 C 61.476562 33.757812 59.789062 35.730469 57.703125 35.671875 C 56.246094 35.640625 55.003906 34.648438 54.003906 33.601562 C 50.707031 30.152344 48.863281 25.355469 48.992188 20.609375 C 49.125 15.84375 51.222656 11.167969 54.699219 7.894531 C 46.089844 10.507812 39.050781 17.59375 36.230469 26.132812 C 33.414062 34.671875 34.804688 44.457031 39.699219 51.992188 C 41.734375 55.140625 44.414062 58.066406 45.179688 61.738281 C 46.359375 67.449219 41.925781 73.457031 36.253906 74.71875 C 30.582031 75.984375 24.40625 72.917969 21.324219 67.980469 C 18.242188 63.039062 18.023438 56.636719 20.007812 51.167969 C 21.992188 45.695312 25.976562 41.109375 30.65625 37.644531 C 21.636719 39.742188 13.6875 46.066406 9.628906 54.390625 C 3.378906 67.195312 6.898438 83.167969 17.734375 92.3125 C 22.390625 96.234375 28.210938 98.816406 34.269531 99.449219 C 44.980469 100.554688 56.039062 95.671875 62.679688 87.1875 C 67.488281 81.035156 69.933594 73.144531 69.78125 65.332031 Z M 69.78125 65.332031 " fill-opacity="1" fill-rule="nonzero"/></g></g></g></g></g></g><path fill="#eeeeee" d="M 116.796875 156.222656 C 116.984375 156.335938 117.339844 156.089844 117.507812 155.996094 C 118.015625 155.753906 118.507812 155.472656 118.957031 155.171875 C 119.519531 154.792969 120.046875 154.363281 120.515625 153.890625 C 120.855469 153.574219 121.175781 153.214844 121.476562 152.859375 C 122.71875 151.335938 123.601562 149.550781 124.144531 147.667969 C 124.746094 145.601562 124.933594 143.363281 124.257812 141.335938 C 123.714844 141.765625 123.128906 142.160156 122.566406 142.574219 C 120.441406 144.15625 118.582031 146.148438 117.433594 148.535156 C 116.417969 150.675781 116.003906 153.160156 116.550781 155.488281 C 116.605469 155.640625 116.644531 156.128906 116.796875 156.222656 Z M 116.796875 156.222656 " fill-opacity="1" fill-rule="nonzero"/><g clip-path="url(#589bd4de6e)"><path fill="#eeeeee" d="M 169.074219 177.410156 C 168.378906 174.550781 167.324219 171.789062 165.933594 169.195312 C 163.132812 164.023438 158.996094 159.398438 157.71875 153.667969 C 157.175781 151.183594 157.191406 148.589844 156.535156 146.128906 C 155.878906 143.664062 154.316406 141.203125 151.875 140.507812 C 152.90625 142.3125 153.960938 144.210938 154.035156 146.296875 C 154.128906 148.382812 152.90625 150.675781 150.859375 151.074219 C 149.429688 151.355469 148 150.660156 146.796875 149.851562 C 142.832031 147.199219 139.992188 142.914062 139.089844 138.25 C 138.1875 133.570312 139.222656 128.550781 141.910156 124.605469 C 134.070312 129.023438 128.730469 137.460938 127.828125 146.410156 C 126.925781 155.359375 130.40625 164.605469 136.816406 170.90625 C 139.484375 173.535156 142.738281 175.8125 144.277344 179.234375 C 146.667969 184.550781 143.640625 191.375 138.375 193.839844 C 133.113281 196.300781 126.421875 194.648438 122.339844 190.492188 C 118.261719 186.339844 116.664062 180.136719 117.414062 174.363281 C 118.167969 168.59375 121.0625 163.253906 124.878906 158.855469 C 116.53125 162.859375 110.140625 170.753906 107.980469 179.757812 C 104.652344 193.613281 111.550781 208.445312 124.109375 215.023438 C 129.503906 217.84375 135.746094 219.105469 141.796875 218.410156 C 152.492188 217.167969 162.230469 210.003906 166.875 200.285156 C 170.238281 193.238281 170.917969 185.003906 169.074219 177.410156 Z M 169.074219 177.410156 " fill-opacity="1" fill-rule="nonzero"/></g><g fill="#eeeeee" fill-opacity="1"><g transform="translate(44.121717, 208.315753)"><g><path d="M 15.796875 -29.40625 C 19.546875 -29.40625 22.484375 -28.507812 24.609375 -26.71875 C 26.734375 -24.925781 27.796875 -22.457031 27.796875 -19.3125 C 27.796875 -16.175781 26.734375 -13.71875 24.609375 -11.9375 C 22.484375 -10.164062 19.546875 -9.28125 15.796875 -9.28125 L 7.890625 -9.28125 L 7.890625 0 L 4.78125 0 L 4.78125 -29.40625 Z M 15.703125 -12.015625 C 18.617188 -12.015625 20.847656 -12.648438 22.390625 -13.921875 C 23.929688 -15.191406 24.703125 -16.988281 24.703125 -19.3125 C 24.703125 -21.695312 23.929688 -23.523438 22.390625 -24.796875 C 20.847656 -26.078125 18.617188 -26.71875 15.703125 -26.71875 L 7.890625 -26.71875 L 7.890625 -12.015625 Z M 15.703125 -12.015625 "/></g></g></g><g fill="#eeeeee" fill-opacity="1"><g transform="translate(74.27771, 208.315753)"><g><path d="M 24.859375 0 L 18.140625 -9.453125 C 17.390625 -9.367188 16.609375 -9.328125 15.796875 -9.328125 L 7.890625 -9.328125 L 7.890625 0 L 4.78125 0 L 4.78125 -29.40625 L 15.796875 -29.40625 C 19.546875 -29.40625 22.484375 -28.507812 24.609375 -26.71875 C 26.734375 -24.925781 27.796875 -22.457031 27.796875 -19.3125 C 27.796875 -17.019531 27.210938 -15.082031 26.046875 -13.5 C 24.890625 -11.914062 23.234375 -10.773438 21.078125 -10.078125 L 28.265625 0 Z M 15.703125 -11.96875 C 18.617188 -11.96875 20.847656 -12.609375 22.390625 -13.890625 C 23.929688 -15.179688 24.703125 -16.988281 24.703125 -19.3125 C 24.703125 -21.695312 23.929688 -23.523438 22.390625 -24.796875 C 20.847656 -26.078125 18.617188 -26.71875 15.703125 -26.71875 L 7.890625 -26.71875 L 7.890625 -11.96875 Z M 15.703125 -11.96875 "/></g></g></g><g fill="#eeeeee" fill-opacity="1"><g transform="translate(170.925344, 208.315753)"><g><path d="M 35.328125 -29.40625 L 35.328125 0 L 32.34375 0 L 32.34375 -23.515625 L 20.796875 -3.734375 L 19.3125 -3.734375 L 7.765625 -23.390625 L 7.765625 0 L 4.78125 0 L 4.78125 -29.40625 L 7.34375 -29.40625 L 20.125 -7.609375 L 32.765625 -29.40625 Z M 35.328125 -29.40625 "/></g></g></g><g fill="#eeeeee" fill-opacity="1"><g transform="translate(211.035338, 208.315753)"><g><path d="M 25.578125 -2.6875 L 25.578125 0 L 4.78125 0 L 4.78125 -29.40625 L 24.953125 -29.40625 L 24.953125 -26.71875 L 7.890625 -26.71875 L 7.890625 -16.25 L 23.09375 -16.25 L 23.09375 -13.609375 L 7.890625 -13.609375 L 7.890625 -2.6875 Z M 25.578125 -2.6875 "/></g></g></g><g fill="#eeeeee" fill-opacity="1"><g transform="translate(239.133328, 208.315753)"><g><path d="M 10.5 -26.71875 L 0.171875 -26.71875 L 0.171875 -29.40625 L 23.9375 -29.40625 L 23.9375 -26.71875 L 13.609375 -26.71875 L 13.609375 0 L 10.5 0 Z M 10.5 -26.71875 "/></g></g></g><g fill="#eeeeee" fill-opacity="1"><g transform="translate(263.241324, 208.315753)"><g><path d="M 29.359375 -29.40625 L 29.359375 0 L 26.296875 0 L 26.296875 -13.5625 L 7.890625 -13.5625 L 7.890625 0 L 4.78125 0 L 4.78125 -29.40625 L 7.890625 -29.40625 L 7.890625 -16.296875 L 26.296875 -16.296875 L 26.296875 -29.40625 Z M 29.359375 -29.40625 "/></g></g><g transform="translate(297.387322, 208.315753)"><g><path d="M 25.578125 -2.6875 L 25.578125 0 L 4.78125 0 L 4.78125 -29.40625 L 24.953125 -29.40625 L 24.953125 -26.71875 L 7.890625 -26.71875 L 7.890625 -16.25 L 23.09375 -16.25 L 23.09375 -13.609375 L 7.890625 -13.609375 L 7.890625 -2.6875 Z M 25.578125 -2.6875 "/></g></g></g><g fill="#eeeeee" fill-opacity="1"><g transform="translate(325.485312, 208.315753)"><g><path d="M 23.21875 -7.859375 L 6.84375 -7.859375 L 3.3125 0 L 0.078125 0 L 13.53125 -29.40625 L 16.59375 -29.40625 L 30.03125 0 L 26.75 0 Z M 22.09375 -10.375 L 15.03125 -26.171875 L 7.984375 -10.375 Z M 22.09375 -10.375 "/></g></g></g></svg>